<svg xmlns="http://www.w3.org/2000/svg" height="24" viewBox="0 -960 960 960" width="24"><path d="M480-80q-82 0-155-31.5t-127.5-86Q143-252 111.5-325T80-480q0-83 31.5-155.5t86-127Q252-817 325-848.5T480-880q83 0 155.5 31.5t127 86q54.5 54.5 86 127T880-480q0 18-3 36t-9 35l-71-71q8-36 11.5-70.5T808-621q-14-118-105-198.5T480-900q-139 0-244.5 81.5T105-621q-25 106 5.5 204.5T216-258q48 48 107.5 73t127.5 25q16 0 31.5-1.5T513-166L390-289q-12 5-25 7.5t-27 2.5q-58 0-99-41t-41-99q0-13 2.5-26t7.5-26l-144-144q-2 15-3.5 32.5T60-549q0 157 101.5 273T434-135l46 55ZM480-480Z"/><path d="M748-268q-18 29-39.5 54T663-169q-4 5-5.5 11t.5 11q2 13 13 19.5t23 .5q31-16 57-39t47-52q20-30 31-62.5t11-66.5q0-9-5.5-16t-14.5-8q-10-1-18.5 4.5T789-354q-5 13-12 25.5T762-304l-14 36Zm-76-236q17 0 28.5-11.5T712-544q0-17-11.5-28.5T672-584q-17 0-28.5 11.5T632-544q0 17 11.5 28.5T672-504Zm-160-80q17 0 28.5-11.5T552-624q0-17-11.5-28.5T512-664q-17 0-28.5 11.5T472-624q0 17 11.5 28.5T512-584Zm-160 80q17 0 28.5-11.5T392-544q0-17-11.5-28.5T352-584q-17 0-28.5 11.5T312-544q0 17 11.5 28.5T352-504Zm133 349-57-57 56-56 57 57-56 56Z"/></svg>