<svg xmlns="http://www.w3.org/2000/svg" height="24" viewBox="0 -960 960 960" width="24"><path d="M480-80q-83 0-156-31.5T197-197q-54-54-85.5-127T80-480q0-166 117-283t283-117q166 0 283 117t117 283q0 21-1 42t-5 41q-3 15-13.5 25.5T833-361h-61q-21 0-38 12.5T713-315q-3 11-12 28t-11 28l-8 14-25 43q-24 41-65.5 66.5T502-111q-5 18-20 29.5T449-70q6-4 13-6.5t18-3.5Zm0-80q13 0 24 6.5t19 17.5q29-15 48.5-44t22.5-64q4-6 19-32.5t26-44.5q9-15 23-24t30-9h61q15 0 22.5-9t4.5-20q3-14 5-29.5t2-35.5q0-133-93.5-226.5T480-800q-133 0-226.5 93.5T160-480q0 133 93.5 226.5T480-160Zm0-320Z"/></svg>